<svg xmlns="http://www.w3.org/2000/svg" width="1200" height="800" viewBox="0 0 1200 800">
  <defs>
    <linearGradient id="sky" x1="0%" y1="0%" x2="100%" y2="100%">
      <stop offset="0%" stop-color="#F4FAF3" />
      <stop offset="100%" stop-color="#DCEFD6" />
    </linearGradient>
  </defs>
  <rect width="1200" height="800" fill="url(#sky)" />
  <rect y="520" width="1200" height="280" fill="#D5E6B5" />
  <rect x="120" y="150" width="960" height="420" rx="36" fill="#FFFFFF" />
  <circle cx="310" cy="330" r="110" fill="#1F6B46" />
  <rect x="285" y="365" width="50" height="120" rx="22" fill="#8D6A3A" />
  <circle cx="575" cy="330" r="82" fill="#2B8A57" />
  <rect x="552" y="360" width="46" height="112" rx="20" fill="#8D6A3A" />
  <circle cx="815" cy="315" r="64" fill="#3E9E61" />
  <rect x="792" y="340" width="46" height="100" rx="20" fill="#8D6A3A" />
  <path d="M0 520 C200 420 420 470 600 520 C820 585 1020 470 1200 520 L1200 800 L0 800 Z" fill="#A5C871" />
  <text x="160" y="640" fill="#163F2B" font-family="Inter, Arial, sans-serif" font-size="48" font-weight="700">Plantation &amp; Landscaping</text>
  <text x="160" y="690" fill="#4E6A55" font-family="Inter, Arial, sans-serif" font-size="28">Routine garden care, seasonal plantation, and outdoor upkeep.</text>
</svg>
